<?xml version="1.0" encoding="UTF-8" standalone="no"?>
<!-- Created with Inkscape (http://www.inkscape.org/) -->

<svg
   width="5000"
   height="5000"
   viewBox="0 0 556.82214 556.82214"
   version="1.1"
   id="svg1"
   inkscape:version="1.3.2 (091e20e, 2023-11-25, custom)"
   sodipodi:docname="drawing.svg"
   xmlns:inkscape="http://www.inkscape.org/namespaces/inkscape"
   xmlns:sodipodi="http://sodipodi.sourceforge.net/DTD/sodipodi-0.dtd"
   xmlns="http://www.w3.org/2000/svg"
   xmlns:svg="http://www.w3.org/2000/svg">
  <sodipodi:namedview
     id="namedview1"
     pagecolor="#ffffff"
     bordercolor="#999999"
     borderopacity="1"
     inkscape:showpageshadow="2"
     inkscape:pageopacity="0"
     inkscape:pagecheckerboard="0"
     inkscape:deskcolor="#d1d1d1"
     inkscape:document-units="mm"
     inkscape:zoom="0.020807315"
     inkscape:cx="-5358.6923"
     inkscape:cy="168.21007"
     inkscape:window-width="2560"
     inkscape:window-height="1334"
     inkscape:window-x="-11"
     inkscape:window-y="-11"
     inkscape:window-maximized="1"
     inkscape:current-layer="layer1" />
  <defs
     id="defs1" />
  <g
     inkscape:label="Layer 1"
     inkscape:groupmode="layer"
     id="layer1">
    <path
       style="fill:none;stroke:#000000;stroke-width:1.95507"
       d="m -152.05147,220.99725 h 263.0703 L 255.60718,-4.4025572 844.00131,-55.922555 l 10.04081,-379.959925 -483.9691,-197.49335 -640.60658,-2.14671 20.0816,-420.74646 359.46265,-36.4933 -62.253386,-530.2265 -618.516594,51.5199 -680.76981,53.6668 -2.0082,592.47984 -441.7976,72.98656 -596.4267,354.1999 -24.0979,654.73306 -319.2993,1032.54634 409.6668,289.7999"
       id="path1" />
    <path
       style="fill:none;stroke:#000000;stroke-width:1.95507"
       d="m 129.09236,-64.509333 132.53938,-164.219877 -5.02052,-245.79336 -591.40637,-6.43986 -428.74439,-5.3667 -1.0041,342.39311 -7.0285,485.14664 -615.50446,-4.29336 L -1614,779.1304 l -35.1428,392.8399 782.18244,19.32"
       id="path2" />
    <path
       style="fill:none;stroke:#000000;stroke-width:1.95507"
       d="M -685.83671,710.78715 -413.19834,741.1457 -100.8003,577.21002 478.55612,631.85512 864.79369,370.77251 961.35318,832.2209 728.47466,1245.0957 46.878736,1044.7299 -504.07777,1014.3717"
       id="path3" />
    <path
       style="fill:none;stroke:#000000;stroke-width:1.95507"
       d="m 847.75394,-655.34259 443.03726,-315.7279 -283.9983,-491.80681 834.9551,-139.6488 420.3173,667.88567 -227.1987,406.80312"
       id="path4" />
    <path
       style="fill:none;stroke:#000000;stroke-width:1.95507"
       d="m 1148.792,-351.7584 528.237,-455.37648"
       id="path5" />
    <path
       style="fill:none;stroke:#000000;stroke-width:1.95507"
       d="m 1057.9126,-114.96256 215.8386,704.31599"
       id="path6" />
    <path
       style="fill:none;stroke:#000000;stroke-width:1.95507"
       d="M 1438.4703,200.76534 H 1466.87 L 2006.4667,-29.958946"
       id="path7" />
    <path
       style="fill:none;stroke:#000000;stroke-width:1.95507"
       d="m 1478.23,-363.90175 363.518,813.60632"
       id="path8" />
    <path
       style="fill:none;stroke:#000000;stroke-width:1.95507"
       d="m 404.71665,498.278 17.03985,85.00362 73.83958,194.29418"
       id="path9" />
    <path
       style="fill:none;stroke:#000000;stroke-width:1.95507"
       d="m -913.03524,-139.2493 647.51591,97.14702"
       id="path10" />
    <path
       style="fill:none;stroke:#000000;stroke-width:1.95507"
       d="m -1225.4332,273.62556 -22.7198,843.96464"
       id="path11" />
    <path
       style="fill:none;stroke:#000000;stroke-width:1.95507"
       d="m -2355.7464,-151.39263 727.0356,-12.14334"
       id="path12" />
    <path
       style="fill:none;stroke:#000000;stroke-width:1.95507"
       d="m -1441.272,-1092.5042 187.4389,491.8066"
       id="path13" />
    <path
       style="fill:none;stroke:#000000;stroke-width:1.95507"
       d="m -1907.0291,-157.46423 -17.0399,-376.44468"
       id="path14" />
    <path
       style="fill:none;stroke:#000000;stroke-width:1.95507"
       d="m -532.47766,-1632.8845 56.79965,400.7314"
       id="path15" />
    <path
       style="fill:none;stroke:#000000;stroke-width:1.95507"
       d="M -2173.9873,880.79432 -1742.3101,498.278"
       id="path16" />
    <path
       style="fill:none;stroke:#000000;stroke-width:1.95507"
       d="m -805.11587,1020.4432 323.75799,382.5165"
       id="path17" />
    <path
       style="fill:none;stroke:#000000;stroke-width:1.95507"
       d="m -55.36059,1293.6692 90.87935,473.5917 -556.63651,188.2223 -420.31739,655.7426 -630.47606,-437.1616 -494.1568,406.8028"
       id="path18" />
    <path
       style="fill:none;stroke:#000000;stroke-width:1.95507"
       d="m -1696.8704,1603.3251 374.8777,333.9432"
       id="path19" />
    <path
       style="fill:none;stroke:#000000;stroke-width:1.95507"
       d="m -1043.6745,2186.2075 567.99649,-783.2478"
       id="path20" />
    <path
       style="fill:none;stroke:#000000;stroke-width:1.95507"
       d="M 234.31764,2167.9926 876.15367,1688.329 1478.23,1761.1893 1699.7486,1232.9524"
       id="path21" />
    <path
       style="fill:none;stroke:#000000;stroke-width:1.95507"
       d="m 1160.1519,1317.9559 278.3184,-321.79939 687.2756,-340.01464 96.5592,-540.38013"
       id="path22" />
    <path
       style="fill:none;stroke:#000000;stroke-width:1.95507"
       d="M 2006.4667,1062.9451 2290.465,1354.386 2744.8622,990.08491"
       id="path23" />
    <path
       style="fill:none;stroke:#000000;stroke-width:1.95507"
       d="m 3227.6589,-266.75473 -11.3599,-30.35837 -357.8379,-1013.972"
       id="path24" />
    <path
       style="fill:none;stroke:#000000;stroke-width:1.95507"
       d="M 2580.143,-272.82633 2716.4623,510.4214"
       id="path25" />
    <path
       style="fill:none;stroke:#000000;stroke-width:1.95507"
       d="m 535.35595,-1402.1603 283.99807,-995.7571"
       id="path26" />
  </g>
</svg>
